<svg xmlns="http://www.w3.org/2000/svg" viewBox="0 0 600 450" role="img" aria-label="Monstera illustration">
  <rect width="600" height="450" rx="36" fill="#eef8ef"/>
  <ellipse cx="300" cy="390" rx="110" ry="30" fill="#d6e6cf"/>
  <rect x="286" y="185" width="28" height="165" rx="14" fill="#5f9b5c"/>
  <path d="M300 215c-75-90-160-42-150 18 6 39 52 72 114 50l36-68z" fill="#2ba96b"/>
  <path d="M298 245c98-110 170-54 164 16-4 48-57 87-132 61l-32-77z" fill="#35bb73"/>
  <path d="M302 152c-20-84 59-138 128-87 44 34 34 93-25 122l-103-35z" fill="#52c97f"/>
  <path d="M300 158c17-73-47-116-109-86-39 20-58 69-20 120l129-34z" fill="#3eb875"/>
  <circle cx="300" cy="360" r="70" fill="#bc8755"/>
  <path d="M230 362h140c-8 36-34 50-70 50s-62-14-70-50z" fill="#9b6841"/>
</svg>
